<svg width="1911" height="560" viewBox="0 0 1911 560" fill="none" xmlns="http://www.w3.org/2000/svg">
<path d="M312.269 104.94C312.268 113.335 306.743 120.729 298.694 123.102L141.322 169.497C133.272 171.87 127.746 179.263 127.746 187.658V514.155C127.746 522.538 122.233 529.927 114.198 532.307L24.3018 558.956C12.1725 562.549 0 553.456 0 540.799V100.506C0 93.1427 4.84091 86.6566 11.8977 84.5649C12.3997 84.3642 12.9116 84.1782 13.4363 84.0192L287.855 0.826289C300.008 -2.8582 312.269 6.24122 312.269 18.9459V104.94Z" fill="black"/>
<path d="M184.522 241.34C184.522 232.955 190.035 225.569 198.071 223.187L287.967 196.54C300.096 192.945 312.269 202.037 312.269 214.693V426.066C312.269 434.451 306.756 441.837 298.72 444.219L208.824 470.864C196.695 474.461 184.522 465.369 184.522 452.713V241.34Z" fill="black"/>
<path d="M432.797 391.474V222.274H398.797V179.474H432.797V159.874C432.797 151.874 433.864 143.474 435.997 134.674C438.13 125.607 441.73 117.207 446.797 109.474C452.13 101.741 459.464 95.4741 468.797 90.6741C478.397 85.8741 490.397 83.4741 504.797 83.4741C512.797 83.4741 519.33 84.1407 524.397 85.4741C529.73 86.5407 532.397 87.0741 532.397 87.0741V125.874C532.397 125.874 530.664 125.607 527.197 125.074C523.73 124.274 519.997 123.874 515.997 123.874C504.53 123.874 496.664 127.207 492.397 133.874C488.13 140.541 485.997 149.207 485.997 159.874V179.474H629.197V391.474H575.997V222.274H485.997V391.474H432.797ZM602.397 146.674C593.064 146.674 585.33 143.607 579.197 137.474C573.33 131.341 570.397 124.007 570.397 115.474C570.397 106.941 573.33 99.6074 579.197 93.4741C585.33 87.3408 593.064 84.2741 602.397 84.2741C611.73 84.2741 619.464 87.3408 625.597 93.4741C631.73 99.6074 634.797 106.941 634.797 115.474C634.797 124.007 631.73 131.341 625.597 137.474C619.464 143.607 611.73 146.674 602.397 146.674Z" fill="black"/>
<path d="M750.959 476.274C732.026 476.274 716.293 473.741 703.759 468.674C691.493 463.874 681.759 457.874 674.559 450.674C667.359 443.741 662.026 436.674 658.559 429.474C655.093 422.274 652.826 416.274 651.759 411.474C650.693 406.674 650.159 404.274 650.159 404.274H702.159C702.159 404.274 702.693 405.741 703.759 408.674C704.826 411.607 706.959 414.941 710.159 418.674C713.626 422.674 718.559 426.141 724.959 429.074C731.359 432.007 739.893 433.474 750.559 433.474C769.226 433.474 782.693 428.141 790.959 417.474C799.226 406.807 803.359 393.874 803.359 378.674V355.074H800.959C798.026 359.607 793.759 364.541 788.159 369.874C782.826 375.207 775.759 379.741 766.959 383.474C758.426 387.207 748.026 389.074 735.759 389.074C720.026 389.074 706.293 386.007 694.559 379.874C682.826 373.741 672.959 365.607 664.959 355.474C656.959 345.341 650.959 334.007 646.959 321.474C643.226 308.674 641.359 295.607 641.359 282.274C641.359 268.941 643.226 256.007 646.959 243.474C650.959 230.674 656.959 219.207 664.959 209.074C672.959 198.674 682.826 190.541 694.559 184.674C706.293 178.541 720.026 175.474 735.759 175.474C748.026 175.474 758.426 177.341 766.959 181.074C775.759 184.807 782.826 189.341 788.159 194.674C793.759 199.741 798.026 204.541 800.959 209.074H803.359V179.474H856.559V378.274C856.559 396.674 852.693 413.207 844.959 427.874C837.226 442.807 825.493 454.541 809.759 463.074C794.293 471.874 774.693 476.274 750.959 476.274ZM749.759 346.274C761.759 346.274 771.759 343.207 779.759 337.074C787.759 330.674 793.759 322.674 797.759 313.074C801.759 303.207 803.759 292.941 803.759 282.274C803.759 271.341 801.759 261.074 797.759 251.474C793.759 241.607 787.759 233.607 779.759 227.474C771.759 221.341 761.759 218.274 749.759 218.274C737.493 218.274 727.226 221.341 718.959 227.474C710.959 233.607 704.959 241.607 700.959 251.474C696.959 261.074 694.959 271.341 694.959 282.274C694.959 292.941 696.959 303.207 700.959 313.074C704.959 322.674 710.959 330.674 718.959 337.074C727.226 343.207 737.493 346.274 749.759 346.274Z" fill="black"/>
<path d="M937.478 395.474C915.345 395.474 898.545 388.674 887.078 375.074C875.878 361.474 870.278 344.007 870.278 322.674V179.474H923.078V313.874C923.078 325.341 926.145 334.541 932.278 341.474C938.411 348.141 947.078 351.474 958.278 351.474C968.145 351.474 976.145 348.941 982.278 343.874C988.411 338.807 992.811 332.274 995.478 324.274C998.411 316.274 999.878 308.007 999.878 299.474V179.474H1053.08V391.474H999.878V361.074H997.478C994.811 365.874 990.945 370.941 985.878 376.274C981.078 381.607 974.678 386.141 966.678 389.874C958.945 393.607 949.211 395.474 937.478 395.474Z" fill="black"/>
<path d="M1066.7 391.474V179.474H1119.5V208.674H1121.5C1125.23 200.407 1131.37 192.807 1139.9 185.874C1148.43 178.941 1161.23 175.474 1178.3 175.474C1183.63 175.474 1188.03 175.874 1191.5 176.674C1194.97 177.207 1196.7 177.474 1196.7 177.474V229.074C1196.7 229.074 1194.7 228.807 1190.7 228.274C1186.97 227.741 1182.3 227.474 1176.7 227.474C1158.03 227.474 1143.9 232.674 1134.3 243.074C1124.7 253.474 1119.9 270.274 1119.9 293.474V391.474H1066.7Z" fill="black"/>
<path d="M1280.58 175.474C1294.18 175.474 1305.38 177.741 1314.18 182.274C1322.98 186.541 1329.91 191.341 1334.98 196.674C1340.04 201.741 1343.51 205.874 1345.38 209.074H1347.78V179.474H1400.98V391.474H1347.78V361.874H1345.38C1343.51 365.074 1340.04 369.341 1334.98 374.674C1329.91 380.007 1322.98 384.807 1314.18 389.074C1305.38 393.341 1294.18 395.474 1280.58 395.474C1264.84 395.474 1251.11 392.407 1239.38 386.274C1227.64 379.874 1217.78 371.474 1209.78 361.074C1202.04 350.407 1196.18 338.541 1192.18 325.474C1188.44 312.407 1186.58 299.074 1186.58 285.474C1186.58 271.874 1188.44 258.541 1192.18 245.474C1196.18 232.407 1202.04 220.674 1209.78 210.274C1217.78 199.607 1227.64 191.207 1239.38 185.074C1251.11 178.674 1264.84 175.474 1280.58 175.474ZM1294.58 219.074C1282.58 219.074 1272.44 222.407 1264.18 229.074C1256.18 235.474 1250.18 243.741 1246.18 253.874C1242.18 264.007 1240.18 274.541 1240.18 285.474C1240.18 296.407 1242.18 306.941 1246.18 317.074C1250.18 327.207 1256.18 335.607 1264.18 342.274C1272.44 348.674 1282.58 351.874 1294.58 351.874C1306.58 351.874 1316.58 348.674 1324.58 342.274C1332.58 335.607 1338.58 327.207 1342.58 317.074C1346.58 306.941 1348.58 296.407 1348.58 285.474C1348.58 274.541 1346.58 264.007 1342.58 253.874C1338.58 243.741 1332.58 235.474 1324.58 229.074C1316.58 222.407 1306.58 219.074 1294.58 219.074Z" fill="black"/>
<path d="M1535.9 395.474C1522.3 395.474 1511.1 393.341 1502.3 389.074C1493.5 384.541 1486.56 379.607 1481.5 374.274C1476.7 368.941 1473.36 364.807 1471.5 361.874H1468.7V391.474H1415.5V87.4741H1468.7V209.074H1471.5C1473.36 205.874 1476.7 201.607 1481.5 196.274C1486.56 190.941 1493.5 186.141 1502.3 181.874C1511.1 177.607 1522.3 175.474 1535.9 175.474C1551.9 175.474 1565.76 178.674 1577.5 185.074C1589.23 191.207 1598.96 199.607 1606.7 210.274C1614.43 220.674 1620.16 232.407 1623.9 245.474C1627.9 258.541 1629.9 271.874 1629.9 285.474C1629.9 299.074 1627.9 312.407 1623.9 325.474C1620.16 338.541 1614.43 350.407 1606.7 361.074C1598.96 371.474 1589.23 379.874 1577.5 386.274C1565.76 392.407 1551.9 395.474 1535.9 395.474ZM1521.9 351.874C1534.16 351.874 1544.3 348.674 1552.3 342.274C1560.3 335.607 1566.3 327.207 1570.3 317.074C1574.3 306.941 1576.3 296.407 1576.3 285.474C1576.3 274.541 1574.3 264.007 1570.3 253.874C1566.3 243.741 1560.3 235.474 1552.3 229.074C1544.3 222.407 1534.16 219.074 1521.9 219.074C1509.9 219.074 1499.9 222.407 1491.9 229.074C1483.9 235.474 1477.9 243.741 1473.9 253.874C1469.9 264.007 1467.9 274.541 1467.9 285.474C1467.9 296.407 1469.9 306.941 1473.9 317.074C1477.9 327.207 1483.9 335.607 1491.9 342.274C1499.9 348.674 1509.9 351.874 1521.9 351.874Z" fill="black"/>
<path d="M1642.78 391.474L1643.18 87.4741H1695.98V391.474H1642.78Z" fill="black"/>
<path d="M1814.55 395.474C1796.42 395.474 1780.69 392.407 1767.35 386.274C1754.29 379.874 1743.35 371.474 1734.55 361.074C1726.02 350.407 1719.62 338.541 1715.35 325.474C1711.09 312.407 1708.95 299.074 1708.95 285.474C1708.95 271.874 1710.95 258.674 1714.95 245.874C1719.22 232.807 1725.49 220.941 1733.75 210.274C1742.29 199.607 1753.09 191.207 1766.15 185.074C1779.22 178.674 1794.69 175.474 1812.55 175.474C1831.75 175.474 1848.69 179.741 1863.35 188.274C1878.02 196.807 1889.49 209.341 1897.75 225.874C1906.02 242.141 1910.15 262.407 1910.15 286.674V300.274H1762.55C1763.35 314.674 1768.29 327.207 1777.35 337.874C1786.42 348.274 1798.82 353.474 1814.55 353.474C1823.62 353.474 1831.09 352.007 1836.95 349.074C1842.82 346.141 1847.35 342.807 1850.55 339.074C1853.75 335.074 1856.02 331.741 1857.35 329.074C1858.69 326.141 1859.35 324.674 1859.35 324.674H1908.55C1908.55 324.674 1907.89 327.074 1906.55 331.874C1905.22 336.407 1902.69 342.274 1898.95 349.474C1895.49 356.407 1890.29 363.474 1883.35 370.674C1876.42 377.607 1867.35 383.474 1856.15 388.274C1844.95 393.074 1831.09 395.474 1814.55 395.474ZM1762.55 265.474H1858.95C1858.15 248.941 1853.22 236.674 1844.15 228.674C1835.09 220.674 1824.42 216.674 1812.15 216.674C1798.55 216.674 1787.22 221.074 1778.15 229.874C1769.09 238.407 1763.89 250.274 1762.55 265.474Z" fill="black"/>
</svg>
