<svg xmlns="http://www.w3.org/2000/svg" xml:space="preserve" style="fill-rule:evenodd;clip-rule:evenodd;stroke-linecap:round;stroke-linejoin:round;stroke-miterlimit:1.5" viewBox="0 0 3300 1000"><path d="M.061 0v-.48h.11V0h-.11ZM.38 0v-.286C.38-.318.37-.343.35-.36a.107.107 0 0 0-.074-.027.112.112 0 0 0-.053.012.092.092 0 0 0-.038.035.103.103 0 0 0-.014.054L.128-.31a.168.168 0 0 1 .089-.157.187.187 0 0 1 .092-.023c.034 0 .065.007.092.022A.168.168 0 0 1 .49-.31V0H.38Zm.319 0v-.286c0-.032-.01-.057-.03-.074a.107.107 0 0 0-.074-.027.118.118 0 0 0-.053.012.092.092 0 0 0-.038.035.103.103 0 0 0-.014.054L.428-.31A.195.195 0 0 1 .46-.405a.182.182 0 0 1 .07-.062.194.194 0 0 1 .093-.023c.035 0 .066.007.094.022.028.015.05.035.067.062a.176.176 0 0 1 .025.096V0h-.11Z" style="fill:#fff;fill-rule:nonzero" transform="translate(979.734 726.355) scale(930.538)"/><path d="M.262.01a.219.219 0 0 1-.118-.033.24.24 0 0 1-.083-.09.26.26 0 0 1-.03-.126c0-.047.01-.09.03-.128a.256.256 0 0 1 .083-.09.219.219 0 0 1 .215-.01.185.185 0 0 1 .068.065.17.17 0 0 1 .025.093v.138a.17.17 0 0 1-.025.093.165.165 0 0 1-.067.064.198.198 0 0 1-.098.024ZM.28-.094a.127.127 0 0 0 .098-.041.144.144 0 0 0 .038-.105.167.167 0 0 0-.017-.076.131.131 0 0 0-.047-.052.143.143 0 0 0-.072-.018.127.127 0 0 0-.118.07.155.155 0 0 0-.018.076c0 .029.006.054.018.076a.118.118 0 0 0 .048.051c.02.013.043.019.07.019ZM.409 0v-.129l.019-.117-.019-.116V-.48h.11V0h-.11Z" style="fill:#fff;fill-rule:nonzero" transform="translate(1780.93 726.355) scale(930.538)"/><path d="m.025-.06.268-.36h.129l-.268.36H.025Zm0 .06v-.06l.1-.04h.291V0H.025Zm.018-.38v-.1h.379v.06l-.1.04H.043Z" style="fill:#fff;fill-rule:nonzero" transform="translate(2320.64 726.355) scale(930.538)"/><path d="M.262.01a.219.219 0 0 1-.118-.033.24.24 0 0 1-.083-.09.26.26 0 0 1-.03-.126c0-.047.01-.09.03-.128a.256.256 0 0 1 .083-.09.219.219 0 0 1 .215-.01.185.185 0 0 1 .068.065.17.17 0 0 1 .025.093v.138a.17.17 0 0 1-.025.093.165.165 0 0 1-.067.064.198.198 0 0 1-.098.024ZM.28-.094a.127.127 0 0 0 .098-.041.144.144 0 0 0 .038-.105.167.167 0 0 0-.017-.076.131.131 0 0 0-.047-.052.143.143 0 0 0-.072-.018.127.127 0 0 0-.118.07.155.155 0 0 0-.018.076c0 .029.006.054.018.076a.118.118 0 0 0 .048.051c.02.013.043.019.07.019ZM.409 0v-.129l.019-.117-.019-.116V-.48h.11V0h-.11Z" style="fill:#fff;fill-rule:nonzero" transform="translate(2729.14 726.355) scale(930.538)"/><path d="m179.218 273.769 448.039 442.687M239.603 230.585l429.531 424.399m-353.643-451.86 376.416 371.919M393.219 178.137l315.678 311.907M522.992 205.921l155.875 154.013M102.662 629.101l155.875 154.013M132.996 340.122l430.622 416.264M102.964 420.992 483.427 788.77M83.339 509.699l303.366 293.252" style="fill:none;stroke:#ff2107;stroke-width:31.25px"/></svg>